<svg width="50" height="50" viewBox="0 0 50 50" fill="none" xmlns="http://www.w3.org/2000/svg">
<path d="M35.418 4.16602H14.5846C8.83167 4.16602 4.16797 8.82972 4.16797 14.5827V35.416C4.16797 41.169 8.83167 45.8327 14.5846 45.8327H35.418C41.1709 45.8327 45.8346 41.169 45.8346 35.416V14.5827C45.8346 8.82972 41.1709 4.16602 35.418 4.16602Z" fill="#003893"/>
<path d="M33.3344 23.6872C33.5915 25.421 33.2953 27.1918 32.488 28.7476C31.6807 30.3034 30.4034 31.5651 28.8377 32.3531C27.2721 33.1412 25.4978 33.4155 23.7672 33.137C22.0367 32.8585 20.438 32.0415 19.1986 30.8021C17.9592 29.5627 17.1421 27.964 16.8637 26.2334C16.5852 24.5029 16.8595 22.7286 17.6475 21.1629C18.4356 19.5973 19.6972 18.3199 21.2531 17.5127C22.8089 16.7054 24.5797 16.4092 26.3135 16.6663C28.0821 16.9286 29.7195 17.7527 30.9837 19.017C32.248 20.2812 33.0721 21.9186 33.3344 23.6872Z" fill="#003893" stroke="white" stroke-width="4" stroke-linecap="round" stroke-linejoin="round"/>
<path d="M39.9784 11.7066C40.0401 12.1228 39.969 12.5477 39.7752 12.9211C39.5815 13.2945 39.2749 13.5973 38.8992 13.7865C38.5234 13.9756 38.0976 14.0414 37.6823 13.9746C37.2669 13.9078 36.8832 13.7117 36.5858 13.4142C36.2883 13.1168 36.0922 12.7331 36.0254 12.3177C35.9586 11.9024 36.0244 11.4766 36.2135 11.1008C36.4027 10.7251 36.7055 10.4185 37.0789 10.2248C37.4523 10.031 37.8772 9.95993 38.2934 10.0216C38.7178 10.0846 39.1108 10.2824 39.4142 10.5858C39.7176 10.8892 39.9154 11.2822 39.9784 11.7066Z" fill="white"/>
</svg>
