<svg width="50" height="50" viewBox="0 0 50 50" fill="none" xmlns="http://www.w3.org/2000/svg">
<path d="M33.332 16.666C36.6472 16.666 39.8267 17.983 42.1709 20.3272C44.5151 22.6714 45.832 25.8508 45.832 29.166V43.7493H37.4987V29.166C37.4987 28.0609 37.0597 27.0011 36.2783 26.2197C35.4969 25.4383 34.4371 24.9993 33.332 24.9993C32.227 24.9993 31.1672 25.4383 30.3858 26.2197C29.6044 27.0011 29.1654 28.0609 29.1654 29.166V43.7493H20.832V29.166C20.832 25.8508 22.149 22.6714 24.4932 20.3272C26.8374 17.983 30.0168 16.666 33.332 16.666Z" fill="#003893"/>
<path d="M12.5013 18.75H4.16797V43.75H12.5013V18.75Z" fill="#003893"/>
<path d="M8.33464 12.4993C10.6358 12.4993 12.5013 10.6339 12.5013 8.33268C12.5013 6.0315 10.6358 4.16602 8.33464 4.16602C6.03345 4.16602 4.16797 6.0315 4.16797 8.33268C4.16797 10.6339 6.03345 12.4993 8.33464 12.4993Z" fill="#003893"/>
</svg>
