<svg width="51" height="59" viewBox="0 0 51 59" fill="none" xmlns="http://www.w3.org/2000/svg">
<path d="M33.3334 54V50.6667C33.3334 48.8986 32.631 47.2029 31.3807 45.9526C30.1305 44.7024 28.4348 44 26.6667 44H13.3334C11.5652 44 9.86955 44.7024 8.61931 45.9526C7.36907 47.2029 6.66669 48.8986 6.66669 50.6667V54" stroke="white" stroke-width="2" stroke-linecap="round" stroke-linejoin="round"/>
<path d="M20 37.3333C23.6819 37.3333 26.6666 34.3486 26.6666 30.6667C26.6666 26.9848 23.6819 24 20 24C16.3181 24 13.3333 26.9848 13.3333 30.6667C13.3333 34.3486 16.3181 37.3333 20 37.3333Z" stroke="white" stroke-width="2" stroke-linecap="round" stroke-linejoin="round"/>
<path d="M48 15C48 15.5304 47.7893 16.0391 47.4142 16.4142C47.0391 16.7893 46.5304 17 46 17H34L30 21V5C30 4.46957 30.2107 3.96086 30.5858 3.58579C30.9609 3.21071 31.4696 3 32 3H46C46.5304 3 47.0391 3.21071 47.4142 3.58579C47.7893 3.96086 48 4.46957 48 5V15Z" stroke="white" stroke-width="2" stroke-linecap="round" stroke-linejoin="round"/>
<path d="M38.704 11.4706C39.3863 11.4706 39.9393 10.9175 39.9393 10.2353C39.9393 9.55306 39.3863 9 38.704 9C38.0218 9 37.4688 9.55306 37.4688 10.2353C37.4688 10.9175 38.0218 11.4706 38.704 11.4706Z" fill="white"/>
<path d="M43.1728 11.4706C43.855 11.4706 44.4081 10.9175 44.4081 10.2353C44.4081 9.55306 43.855 9 43.1728 9C42.4906 9 41.9375 9.55306 41.9375 10.2353C41.9375 10.9175 42.4906 11.4706 43.1728 11.4706Z" fill="white"/>
<path d="M34.2353 11.4706C34.9175 11.4706 35.4706 10.9175 35.4706 10.2353C35.4706 9.55306 34.9175 9 34.2353 9C33.5531 9 33 9.55306 33 10.2353C33 10.9175 33.5531 11.4706 34.2353 11.4706Z" fill="white"/>
</svg>
