<svg width="40" height="40" viewBox="0 0 40 40" fill="none" xmlns="http://www.w3.org/2000/svg">
<path d="M20 1.66602C18.6739 1.66602 17.4021 2.1928 16.4645 3.13048C15.5268 4.06816 15 5.33993 15 6.66602V19.9993C15 21.3254 15.5268 22.5972 16.4645 23.5349C17.4021 24.4726 18.6739 24.9993 20 24.9993C21.3261 24.9993 22.5979 24.4726 23.5355 23.5349C24.4732 22.5972 25 21.3254 25 19.9993V6.66602C25 5.33993 24.4732 4.06816 23.5355 3.13048C22.5979 2.1928 21.3261 1.66602 20 1.66602V1.66602Z" stroke="#003893" stroke-width="2" stroke-linecap="round" stroke-linejoin="round"/>
<path d="M31.6654 16.666V19.9994C31.6654 23.0935 30.4362 26.061 28.2483 28.2489C26.0604 30.4369 23.0929 31.666 19.9987 31.666C16.9045 31.666 13.937 30.4369 11.7491 28.2489C9.5612 26.061 8.33203 23.0935 8.33203 19.9994V16.666" stroke="#003893" stroke-width="2" stroke-linecap="round" stroke-linejoin="round"/>
<path d="M20 31.666V38.3327" stroke="#003893" stroke-width="2" stroke-linecap="round" stroke-linejoin="round"/>
<path d="M13.332 38.334H26.6654" stroke="#003893" stroke-width="2" stroke-linecap="round" stroke-linejoin="round"/>
</svg>
