<svg width="40" height="40" viewBox="0 0 40 40" fill="none" xmlns="http://www.w3.org/2000/svg">
<path d="M25.0831 8.33268C26.711 8.65029 28.207 9.44644 29.3798 10.6192C30.5526 11.792 31.3488 13.2881 31.6664 14.916L25.0831 8.33268ZM25.0831 1.66602C28.4652 2.04174 31.619 3.55631 34.0268 5.96103C36.4345 8.36575 37.9531 11.5177 38.3331 14.8993L25.0831 1.66602ZM36.6664 28.1994V33.1993C36.6683 33.6635 36.5732 34.123 36.3872 34.5483C36.2013 34.9736 35.9286 35.3553 35.5865 35.6691C35.2445 35.9829 34.8407 36.2218 34.401 36.3705C33.9613 36.5192 33.4953 36.5745 33.0331 36.5327C27.9044 35.9754 22.9781 34.2229 18.6497 31.416C14.6228 28.8571 11.2086 25.443 8.64973 21.416C5.83302 17.068 4.08013 12.1177 3.53306 6.96602C3.49141 6.50513 3.54618 6.04062 3.69389 5.60206C3.8416 5.1635 4.07901 4.7605 4.391 4.41872C4.70299 4.07694 5.08273 3.80386 5.50604 3.61689C5.92935 3.42991 6.38696 3.33312 6.84973 3.33268H11.8497C12.6586 3.32472 13.4427 3.61115 14.056 4.13857C14.6693 4.66599 15.0699 5.39843 15.1831 6.19935C15.3941 7.79946 15.7855 9.37056 16.3497 10.8827C16.574 11.4792 16.6225 12.1275 16.4896 12.7508C16.3566 13.3741 16.0478 13.9462 15.5997 14.3994L13.4831 16.516C15.8557 20.6886 19.3105 24.1434 23.4831 26.516L25.5997 24.3994C26.0529 23.9512 26.625 23.6424 27.2483 23.5095C27.8715 23.3766 28.5199 23.4251 29.1164 23.6493C30.6285 24.2136 32.1996 24.605 33.7997 24.816C34.6093 24.9302 35.3487 25.338 35.8773 25.9618C36.4058 26.5857 36.6867 27.382 36.6664 28.1994Z" stroke="#003893" stroke-width="2" stroke-linecap="round" stroke-linejoin="round"/>
</svg>
