<svg width="40" height="40" viewBox="0 0 40 40" fill="none" xmlns="http://www.w3.org/2000/svg">
<path d="M25.0833 8.33329C26.7112 8.6509 28.2072 9.44705 29.38 10.6199C30.5528 11.7926 31.349 13.2887 31.6666 14.9166L25.0833 8.33329ZM25.0833 1.66663C28.4654 2.04235 31.6193 3.55692 34.027 5.96164C36.4348 8.36636 37.9533 11.5183 38.3333 14.9L25.0833 1.66663ZM36.6666 28.2V33.2C36.6685 33.6641 36.5734 34.1236 36.3875 34.5489C36.2015 34.9742 35.9288 35.3559 35.5867 35.6697C35.2447 35.9835 34.8409 36.2224 34.4012 36.3711C33.9615 36.5198 33.4956 36.5751 33.0333 36.5333C27.9047 35.976 22.9783 34.2235 18.6499 31.4166C14.623 28.8577 11.2088 25.4436 8.64994 21.4166C5.83324 17.0686 4.08034 12.1183 3.53327 6.96663C3.49162 6.50574 3.5464 6.04123 3.69411 5.60267C3.84182 5.16411 4.07922 4.76111 4.39122 4.41933C4.70321 4.07755 5.08295 3.80447 5.50626 3.6175C5.92957 3.43052 6.38717 3.33373 6.84994 3.33329H11.8499C12.6588 3.32533 13.4429 3.61176 14.0562 4.13918C14.6695 4.6666 15.0701 5.39904 15.1833 6.19996C15.3943 7.80007 15.7857 9.37117 16.3499 10.8833C16.5742 11.4798 16.6227 12.1282 16.4898 12.7514C16.3569 13.3747 16.048 13.9468 15.5999 14.4L13.4833 16.5166C15.8559 20.6892 19.3107 24.144 23.4833 26.5166L25.5999 24.4C26.0531 23.9519 26.6252 23.643 27.2485 23.5101C27.8717 23.3772 28.5201 23.4257 29.1166 23.65C30.6287 24.2142 32.1998 24.6056 33.7999 24.8166C34.6095 24.9308 35.3489 25.3386 35.8775 25.9625C36.406 26.5863 36.6869 27.3826 36.6666 28.2Z" stroke="white" stroke-width="2" stroke-linecap="round" stroke-linejoin="round"/>
</svg>
